<svg width="98" height="16" viewBox="0 0 98 16" fill="none" xmlns="http://www.w3.org/2000/svg">
<path d="M97.7071 8.70711C98.0976 8.31658 98.0976 7.68342 97.7071 7.29289L91.3431 0.928932C90.9526 0.538408 90.3195 0.538408 89.9289 0.928932C89.5384 1.31946 89.5384 1.95262 89.9289 2.34315L95.5858 8L89.9289 13.6569C89.5384 14.0474 89.5384 14.6805 89.9289 15.0711C90.3195 15.4616 90.9526 15.4616 91.3431 15.0711L97.7071 8.70711ZM0 9H2.02083V7H0V9ZM6.0625 9H10.1042V7H6.0625V9ZM14.1458 9H18.1875V7H14.1458V9ZM22.2292 9H26.2708V7H22.2292V9ZM30.3125 9H34.3542V7H30.3125V9ZM38.3958 9H42.4375V7H38.3958V9ZM46.4792 9H50.5208V7H46.4792V9ZM54.5625 9H58.6042V7H54.5625V9ZM62.6458 9H66.6875V7H62.6458V9ZM70.7292 9H74.7708V7H70.7292V9ZM78.8125 9H82.8542V7H78.8125V9ZM86.8958 9H90.9375V7H86.8958V9ZM94.9792 9H97V7H94.9792V9ZM97.7071 8.70711C98.0976 8.31658 98.0976 7.68342 97.7071 7.29289L91.3431 0.928932C90.9526 0.538408 90.3195 0.538408 89.9289 0.928932C89.5384 1.31946 89.5384 1.95262 89.9289 2.34315L95.5858 8L89.9289 13.6569C89.5384 14.0474 89.5384 14.6805 89.9289 15.0711C90.3195 15.4616 90.9526 15.4616 91.3431 15.0711L97.7071 8.70711ZM0 9H2.02083V7H0V9ZM6.0625 9H10.1042V7H6.0625V9ZM14.1458 9H18.1875V7H14.1458V9ZM22.2292 9H26.2708V7H22.2292V9ZM30.3125 9H34.3542V7H30.3125V9ZM38.3958 9H42.4375V7H38.3958V9ZM46.4792 9H50.5208V7H46.4792V9ZM54.5625 9H58.6042V7H54.5625V9ZM62.6458 9H66.6875V7H62.6458V9ZM70.7292 9H74.7708V7H70.7292V9ZM78.8125 9H82.8542V7H78.8125V9ZM86.8958 9H90.9375V7H86.8958V9ZM94.9792 9H97V7H94.9792V9Z" fill="black"/>
</svg>
